<?xml version="1.0" standalone="no"?>
<!DOCTYPE svg PUBLIC "-//W3C//DTD SVG 20010904//EN"
 "http://www.w3.org/TR/2001/REC-SVG-20010904/DTD/svg10.dtd">
<svg version="1.0" xmlns="http://www.w3.org/2000/svg"
 width="318.000000pt" height="318.000000pt" viewBox="0 0 318.000000 318.000000"
 preserveAspectRatio="xMidYMid meet">
<metadata>
Created by potrace 1.11, written by Peter Selinger 2001-2013
</metadata>
<g transform="translate(0.000000,318.000000) scale(0.100000,-0.100000)"
fill="#000000" stroke="none">
<path d="M1008 2935 c-2 -2 -21 -5 -43 -8 -215 -30 -426 -209 -557 -472 -55
-110 -77 -194 -93 -350 -4 -33 -8 -67 -10 -75 -2 -8 -7 -51 -11 -95 -9 -121
-14 -126 -174 -205 -101 -50 -124 -69 -118 -96 3 -20 1 -19 128 -28 99 -6 151
-14 159 -22 3 -3 7 -260 9 -572 5 -654 10 -616 -85 -652 -29 -11 -86 -27 -126
-36 -84 -19 -92 -24 -83 -58 l6 -26 203 7 c245 9 541 8 681 -1 90 -5 105 -4
110 10 8 22 8 54 -1 54 -5 0 -35 4 -68 9 -33 6 -78 12 -100 15 -139 20 -190
39 -224 82 -49 62 -51 94 -55 672 l-2 540 40 7 c23 3 138 9 256 11 118 3 219
9 224 14 8 8 10 129 2 137 -2 2 -117 6 -257 9 -140 3 -259 7 -264 8 -18 6 -10
575 10 678 11 56 46 120 89 162 62 60 125 88 211 93 60 4 82 0 155 -27 196
-72 221 -80 268 -86 33 -4 60 -1 86 10 33 14 41 14 65 1 30 -15 48 -49 58
-106 11 -64 9 -2141 -2 -2163 -10 -20 -111 -54 -208 -70 -63 -10 -70 -13 -84
-32 -24 -32 4 -41 124 -37 59 2 258 5 440 6 213 2 337 7 343 13 16 16 1 44
-29 56 -14 5 -71 21 -126 35 -55 14 -104 26 -110 27 -5 2 -26 6 -47 10 -27 6
-37 14 -40 31 -3 13 -5 228 -4 477 1 526 -9 475 120 603 143 141 235 187 376
189 94 1 126 -4 185 -28 127 -53 181 -132 213 -311 8 -48 8 -484 -1 -753 -6
-200 -15 -240 -52 -243 -8 -1 -18 -2 -22 -3 -5 -2 -36 -8 -70 -15 -76 -16
-123 -43 -118 -68 2 -10 4 -20 4 -23 1 -3 179 -5 396 -5 l395 0 0 28 c0 33 -5
36 -165 71 -66 15 -121 29 -123 30 -8 9 -4 306 12 915 4 156 -26 292 -83 375
-141 204 -378 272 -633 180 -123 -45 -205 -100 -321 -216 -59 -59 -109 -108
-111 -108 -1 0 -2 319 -1 709 l2 709 -56 -2 c-31 -1 -67 -9 -81 -18 -14 -8
-58 -28 -98 -43 l-72 -28 -23 20 c-36 33 -101 62 -164 72 -50 8 -248 12 -255
6z"/>
</g>
</svg>
